<svg width="460" height="82" viewBox="0 0 460 82" fill="none" xmlns="http://www.w3.org/2000/svg">
<path d="M2.8 80.4L2.5 79.3C4.2 78.6 5 77.2 5 74.4V10.2C5 8.3 4 7.4 2.7 7.4C1.9 7.4 1 7.7 0.2 8.4L1.41561e-07 7.4C3.1 3 9.8 1.4 15.7 1.4C18.7 1.4 21.2 2.1 23.1 3.4H62C62 6.39999 60.6 8.8 57.6 8.8H26.6C26.7 9.4 26.8 10 26.8 10.7V36.9H59C59 39.9 57.6 42.3 54.6 42.3H26.8V63.3C26.8 75.4 13.5 80.4 2.8 80.4ZM63.9883 51.5C63.9883 33.9 76.0883 21.6 95.1883 21.6C114.288 21.6 126.388 33.9 126.388 51.5C126.388 69.1 114.288 81.4 95.1883 81.4C76.0883 81.4 63.9883 69.1 63.9883 51.5ZM95.1883 76C101.788 76 105.388 67.8 105.388 51.5C105.388 35.2 101.788 27 95.1883 27C88.5883 27 84.9883 35.2 84.9883 51.5C84.9883 67.8 88.5883 76 95.1883 76ZM163.348 78V80.4C143.548 80.4 136.348 75.7 136.348 59.9V10.2C136.348 8.3 135.348 7.4 134.048 7.4C133.248 7.4 132.348 7.7 131.548 8.4L131.348 7.4C134.448 3 140.648 1.4 146.548 1.4C153.148 1.4 157.148 4.8 157.148 10.7V64.9C157.148 72.2 157.148 78 163.348 78ZM197.332 78V80.4C177.532 80.4 170.332 75.7 170.332 59.9V10.2C170.332 8.3 169.332 7.4 168.032 7.4C167.232 7.4 166.332 7.7 165.532 8.4L165.332 7.4C168.432 3 174.632 1.4 180.532 1.4C187.132 1.4 191.132 4.8 191.132 10.7V64.9C191.132 72.2 191.132 78 197.332 78ZM200.316 51.5C200.316 33.9 212.416 21.6 231.516 21.6C250.616 21.6 262.716 33.9 262.716 51.5C262.716 69.1 250.616 81.4 231.516 81.4C212.416 81.4 200.316 69.1 200.316 51.5ZM231.516 76C238.116 76 241.716 67.8 241.716 51.5C241.716 35.2 238.116 27 231.516 27C224.916 27 221.316 35.2 221.316 51.5C221.316 67.8 224.916 76 231.516 76ZM298.076 61L306.976 32.3C307.376 31 306.776 29.8 305.876 29.8C305.276 29.8 304.676 30.2 303.976 31L303.276 30.1C305.876 25.2 310.276 22.6 316.876 22.6C323.476 22.6 326.376 25.6 327.776 30.9L335.776 61.6L347.576 23.4C352.676 25 354.076 27 352.776 31.1L338.876 75C337.876 78.2 334.976 80.4 328.076 80.4C321.376 80.4 319.476 76.2 317.676 70L310.576 45L301.276 74C300.076 77.8 297.576 80.4 290.476 80.4C283.776 80.4 281.776 76.2 280.076 70L269.776 33.4C269.176 31.5 268.376 30.3 267.576 30.3C267.176 30.3 266.776 30.5 266.376 31L265.676 30.1C268.276 25.2 272.676 22.6 279.276 22.6C285.876 22.6 288.776 25.6 290.176 30.9L298.076 61ZM373.35 39.2C366.85 37 360.25 31.6 360.25 21.6C360.25 8.6 372.55 0.399994 390.25 0.399994C407.95 0.399994 420.25 8.6 420.25 21.6C420.25 31.6 413.65 37 407.15 39.2C415.85 41.5 423.25 50 423.25 58.4C423.25 72.7 409.75 81.4 390.25 81.4C370.75 81.4 357.25 72.7 357.25 58.4C357.25 50 364.65 41.5 373.35 39.2ZM390.25 36.4C395.35 36.4 398.45 31 398.45 21C398.45 12 395.25 7.79999 390.25 7.79999C385.25 7.79999 382.05 12 382.05 21C382.05 31 385.15 36.4 390.25 36.4ZM390.25 76C396.75 76 401.45 70.7 401.45 59.3C401.45 47.9 396.85 41.4 390.25 41.4C383.65 41.4 379.05 47.9 379.05 59.3C379.05 70.7 383.75 76 390.25 76ZM431.223 12.8C431.223 4.8 438.123 0.499999 445.123 0.499999C452.123 0.499999 459.023 4.8 459.023 12.8C459.023 20.8 452.123 25.1 445.123 25.1C438.123 25.1 431.223 20.8 431.223 12.8ZM445.123 22.3C448.123 22.3 449.923 19 449.923 12.8C449.923 6.6 448.123 3.3 445.123 3.3C442.123 3.3 440.323 6.6 440.323 12.8C440.323 19 442.123 22.3 445.123 22.3Z" fill="white"/>
</svg>
