<?xml version="1.0" standalone="no"?>
<!DOCTYPE svg PUBLIC "-//W3C//DTD SVG 20010904//EN"
 "http://www.w3.org/TR/2001/REC-SVG-20010904/DTD/svg10.dtd">
<svg version="1.0" xmlns="http://www.w3.org/2000/svg"
 width="2048.000000pt" height="2048.000000pt" viewBox="0 0 2048.000000 2048.000000"
 preserveAspectRatio="xMidYMid meet">

<g transform="translate(0.000000,2048.000000) scale(0.100000,-0.100000)"
fill="#000000" stroke="none">
<path d="M5489 18955 c-205 -28 -350 -79 -762 -266 -132 -60 -241 -109 -242
-109 -2 0 -85 -36 -185 -80 -533 -236 -837 -426 -1236 -775 -324 -282 -647
-618 -843 -878 -479 -636 -933 -1680 -1210 -2782 -163 -649 -219 -1233 -176
-1810 41 -549 94 -845 226 -1282 196 -649 286 -853 751 -1698 367 -666 445
-774 887 -1228 278 -286 338 -352 576 -637 259 -310 317 -375 513 -574 285
-288 536 -505 825 -710 175 -124 267 -181 650 -405 602 -352 1563 -954 1885
-1182 128 -91 403 -307 597 -469 330 -275 653 -512 980 -719 230 -146 343
-208 552 -305 98 -46 232 -114 298 -151 66 -38 174 -94 240 -125 125 -59 316
-164 470 -257 136 -83 315 -172 361 -179 36 -5 53 1 165 58 425 221 1138 656
1588 969 122 85 300 209 397 276 97 67 244 164 327 214 317 193 728 481 1035
726 249 199 420 349 772 678 339 317 544 498 965 853 1217 1028 1420 1210
2071 1858 447 446 606 630 833 964 261 386 371 592 552 1045 48 121 111 274
139 340 204 477 309 799 404 1235 128 590 159 874 159 1460 1 598 -25 904
-125 1505 -16 99 -36 234 -44 300 -40 332 -70 471 -149 691 -75 206 -162 379
-548 1089 -127 235 -259 394 -657 799 -365 371 -437 426 -755 588 -99 50 -229
119 -290 153 -230 130 -1061 542 -1146 568 -47 15 -135 36 -195 48 -247 47
-364 73 -449 99 -147 46 -147 46 -478 56 -203 6 -310 0 -637 -36 -96 -11 -240
-24 -320 -30 -677 -49 -1290 -204 -1935 -489 -397 -176 -877 -459 -1242 -735
-445 -335 -879 -781 -1156 -1186 -39 -58 -85 -118 -103 -135 -17 -16 -46 -54
-64 -83 -18 -29 -36 -50 -40 -45 -5 4 -22 60 -39 123 -72 270 -111 379 -212
585 -127 260 -201 369 -457 668 -210 244 -441 475 -574 573 -172 127 -423 276
-687 409 -489 244 -1028 393 -1580 435 -183 14 -564 11 -682 -5z m9851 -951
c254 -41 518 -92 636 -123 110 -29 578 -196 804 -286 212 -84 389 -180 611
-328 384 -256 532 -371 705 -548 l110 -114 118 -229 c64 -125 136 -263 160
-305 173 -304 313 -648 382 -939 14 -59 54 -217 89 -352 75 -288 95 -394 129
-670 64 -518 82 -1058 46 -1396 -11 -102 -24 -302 -30 -443 -10 -282 -18 -342
-80 -606 -58 -245 -60 -255 -54 -295 6 -37 -40 -211 -78 -298 -11 -26 -33 -83
-48 -127 -70 -204 -302 -678 -409 -838 -92 -138 -136 -213 -172 -293 -38 -83
-104 -173 -459 -624 -61 -77 -551 -646 -685 -795 -59 -66 -214 -232 -344 -370
-130 -137 -311 -331 -403 -430 -226 -246 -667 -680 -813 -801 -66 -55 -192
-156 -280 -224 -88 -68 -293 -230 -455 -359 -162 -130 -491 -387 -730 -571
-239 -185 -466 -360 -505 -390 -155 -120 -436 -331 -535 -401 -152 -108 -233
-158 -540 -334 -151 -86 -430 -259 -620 -384 -190 -126 -379 -249 -420 -276
-113 -71 -256 -178 -441 -326 -92 -74 -192 -149 -222 -167 l-55 -33 -139 84
c-243 148 -394 232 -573 322 -96 49 -251 132 -345 185 -93 53 -210 118 -260
145 -112 60 -427 273 -600 406 -175 135 -374 268 -655 441 -129 80 -414 267
-632 416 -813 554 -995 671 -1347 862 -140 76 -430 268 -583 387 -198 154
-219 170 -410 308 -112 81 -236 182 -310 252 -153 144 -245 226 -371 327 -53
43 -112 99 -129 125 -18 25 -215 233 -438 461 -343 351 -623 654 -818 884 -24
28 -56 78 -71 111 -29 62 -97 174 -443 730 -204 327 -296 499 -441 830 -129
294 -135 309 -152 370 -9 33 -25 87 -35 120 -10 33 -46 152 -79 265 -33 113
-79 259 -101 325 -29 87 -40 136 -40 180 0 33 -11 119 -25 190 -46 238 -57
328 -62 525 -8 290 8 402 157 1060 113 502 99 458 242 770 155 337 301 620
518 1000 64 113 170 300 235 415 137 243 171 295 261 402 270 319 595 629 889
850 764 575 1746 917 2586 901 l194 -3 98 -43 c55 -24 155 -65 224 -93 68 -27
150 -62 181 -78 90 -46 502 -323 615 -414 56 -46 154 -122 217 -169 236 -176
363 -337 599 -757 173 -307 185 -335 318 -726 107 -317 172 -454 245 -520 82
-75 124 -90 243 -90 86 1 113 6 194 33 122 42 198 83 253 136 24 23 124 129
223 236 504 547 929 920 1431 1257 884 593 2029 1055 3104 1252 91 16 176 32
190 35 53 10 281 -6 430 -30z"/>
<path d="M13187 13865 c-15 -8 -69 -45 -120 -83 -51 -38 -114 -83 -142 -99
-82 -48 -756 -502 -1090 -734 -486 -337 -589 -411 -869 -618 -143 -107 -313
-225 -376 -263 l-115 -70 -210 -4 c-401 -8 -950 -26 -958 -31 -13 -8 -246 102
-381 180 -182 106 -454 214 -1018 406 -369 125 -400 138 -953 389 -427 194
-630 292 -786 379 -69 39 -179 96 -245 128 -108 52 -124 57 -172 53 -69 -6
-98 -32 -105 -96 -4 -33 1 -63 15 -102 11 -30 24 -73 28 -95 9 -44 21 -83 52
-160 11 -27 37 -97 58 -155 52 -147 81 -213 171 -390 199 -394 423 -665 709
-857 161 -108 523 -297 685 -358 420 -157 914 -128 1385 80 118 52 396 205
510 281 110 72 79 66 460 94 146 11 367 30 492 42 l226 22 42 -38 c62 -56 213
-152 315 -201 176 -84 330 -115 571 -115 356 0 672 74 996 235 155 76 244 135
336 220 63 59 104 108 256 309 21 28 50 76 63 106 14 30 51 107 83 170 72 142
109 235 159 409 43 150 55 204 70 331 16 137 34 444 29 516 -4 62 -7 69 -41
100 -41 38 -83 44 -130 19z"/>
<path d="M12485 10223 c-44 -13 -67 -33 -184 -154 -234 -242 -459 -436 -653
-562 -368 -239 -687 -417 -879 -491 -290 -112 -490 -160 -726 -176 -155 -11
-194 -23 -245 -77 -33 -34 -58 -92 -58 -132 0 -16 -9 -45 -19 -63 -99 -168 14
-362 209 -360 156 1 586 128 941 278 386 162 734 367 1129 664 85 64 214 156
285 205 426 291 482 346 490 483 1 31 8 73 14 92 39 122 -32 259 -152 295 -62
18 -88 18 -152 -2z"/>
</g>
</svg>
